# xmcd CD database file
#
# Track frame offsets:
#	150
#	10555
#	20945
#	33410
#	42465
#	54135
#	64598
#	74450
#	92300
#	104918
#	116195
#	125945
#	136415
#	150555
#	156833
#	167775
#
# Disc length: 2404 seconds
#
# Revision: 0
# Processed by: cddbd v1.4PL0 Copyright (c) Steve Scherf et al.
# Submitted via: CdAid 2001.05.15.01
#
DISCID=de096210
DTITLE=Eric Clapton - Blues Works 1963-1965
DYEAR=1900
DGENRE=
TTITLE0=I wish you would
TTITLE1=A certain Girl
TTITLE2=Good Morning little Schoolgirl
TTITLE3=I ain't got you
TTITLE4=Got to Hurry
TTITLE5=Putty (in your hand)
TTITLE6=I'm your Witchdoctor
TTITLE7=Telephone Blues
TTITLE8=On Top of the World
TTITLE9=Snake Drive
TTITLE10=Tribute to Elmore
TTITLE11=West Coast Idea
TTITLE12=Draggin'my Tail
TTITLE13=Choker
TTITLE14=Miles Road
TTITLE15=Freight Loader
EXTD=Japanese
EXTT0=
EXTT1=
EXTT2=
EXTT3=
EXTT4=
EXTT5=
EXTT6=
EXTT7=
EXTT8=
EXTT9=
EXTT10=
EXTT11=
EXTT12=
EXTT13=
EXTT14=
EXTT15=
PLAYORDER=
